<svg width="20" height="20" viewBox="0 0 20 20" fill="none" xmlns="http://www.w3.org/2000/svg">
<path d="M17.088 7.07023L12.9214 2.90356M17.088 7.07023L11.8813 12.2769C11.1951 12.963 10.3623 13.5047 9.40615 13.6696C8.44073 13.8362 7.24265 13.8916 6.67129 13.3202C6.09995 12.7489 6.15537 11.5508 6.32188 10.5853C6.48678 9.62919 7.02849 8.79638 7.71458 8.11023L12.9214 2.90356M17.088 7.07023C17.088 7.07023 20.2129 3.94523 18.1296 1.8619C16.0463 -0.221436 12.9214 2.90356 12.9214 2.90356M18.7083 9.99992C18.7083 16.7708 16.625 18.8541 9.85417 18.8541C3.08333 18.8541 1 16.7708 1 9.99992C1 3.22909 3.08333 1.14575 9.85417 1.14575" stroke="#434C6D" stroke-width="1.5" stroke-linecap="round" stroke-linejoin="round"/>
</svg>
