<svg width="20" height="20" viewBox="0 0 20 20" fill="none" xmlns="http://www.w3.org/2000/svg">
<path fill-rule="evenodd" clip-rule="evenodd" d="M2.82868 3.06891C6.62402 -0.721069 12.7937 -0.680769 16.6122 3.13778C20.4324 6.95797 20.4711 13.1313 16.6762 16.9262C12.8812 20.7211 6.70793 20.6824 2.88774 16.8622C0.623889 14.5984 -0.310961 11.5099 0.0904694 8.5812C0.146719 8.1708 0.524999 7.88377 0.935369 7.94002C1.34575 7.99627 1.63282 8.3745 1.57658 8.7849C1.2366 11.2652 2.02782 13.881 3.9484 15.8016C7.19288 19.0461 12.4164 19.0646 15.6155 15.8655C18.8146 12.6664 18.796 7.44292 15.5515 4.19844C12.3087 0.955611 7.08889 0.93539 3.88935 4.12957L4.63705 4.13333C5.05126 4.13541 5.38535 4.47288 5.38327 4.88709C5.38119 5.3013 5.04372 5.63539 4.62951 5.63331L2.08396 5.62052C1.67269 5.61845 1.33981 5.28556 1.33774 4.8743L1.32495 2.32874C1.32286 1.91454 1.65696 1.57707 2.07117 1.57498C2.48538 1.5729 2.82285 1.907 2.82493 2.32121L2.82868 3.06891ZM9.7499 5.24992C10.1641 5.24992 10.4999 5.58571 10.4999 5.99992V9.6893L12.7802 11.9696C13.0731 12.2625 13.0731 12.7374 12.7802 13.0302C12.4873 13.3231 12.0124 13.3231 11.7196 13.0302L8.9999 10.3106V5.99992C8.9999 5.58571 9.3357 5.24992 9.7499 5.24992Z" fill="#434C6D"/>
</svg>
