<svg width="19" height="20" viewBox="0 0 19 20" fill="none" xmlns="http://www.w3.org/2000/svg">
<path d="M18.9905 5.46595C18.9994 4.98199 18.8813 3.85232 17.5465 3.4594L4.1479 0.5C3.16568 0.5 2.36743 1.38081 2.36743 2.46464V5.09856L1.77394 5.09725C0.795277 5.10183 0 5.98003 0 7.06123V17.5354C0 18.6185 0.798245 19.5 1.78047 19.5H17.2195C18.2012 19.5 19 18.6185 19 17.5354L18.9905 5.46595ZM3.55501 2.46398C3.55501 2.12213 3.79359 1.84054 4.09686 1.81172L17.191 4.73576C17.1958 4.73838 17.0937 5.10249 16.6183 5.09594H3.55501V2.46398ZM17.8148 17.5347C17.8148 17.8962 17.5489 18.1896 17.2213 18.1896H1.78166C1.45405 18.1896 1.18817 17.8962 1.18817 17.5347V7.05992C1.18817 6.69843 1.45405 6.40504 1.78166 6.40504H16.6201C17.2029 6.40504 17.8142 6.18566 17.8142 5.75278L17.8148 17.5347ZM3.56332 10.9918C2.9081 10.9918 2.37634 11.5779 2.37634 12.3016C2.37634 13.0252 2.9081 13.6113 3.56332 13.6113C4.21853 13.6113 4.7503 13.0252 4.7503 12.3016C4.7503 11.5779 4.21853 10.9918 3.56332 10.9918Z" fill="#434C6D"/>
</svg>
