<svg width="56" height="55" viewBox="0 0 56 55" fill="none" xmlns="http://www.w3.org/2000/svg">
<path d="M5.97484 34.8146L1.79486 30.6346C0.0898633 28.9296 0.0898633 26.1246 1.79486 24.4196L5.97484 20.2396C6.68984 19.5246 7.26733 18.1221 7.26733 17.1321V11.2197C7.26733 8.79969 9.24736 6.81958 11.6674 6.81958H17.5798C18.5698 6.81958 19.9723 6.24216 20.6873 5.52716L24.8672 1.34711C26.5722 -0.357891 29.3775 -0.357891 31.0825 1.34711L35.2625 5.52716C35.9775 6.24216 37.3797 6.81958 38.3697 6.81958H44.2825C46.7025 6.81958 48.6822 8.79969 48.6822 11.2197V17.1321C48.6822 18.1221 49.2597 19.5246 49.9747 20.2396L54.155 24.4196C55.86 26.1246 55.86 28.9296 54.155 30.6346L49.9747 34.8146C49.2597 35.5296 48.6822 36.9321 48.6822 37.9221V43.8346C48.6822 46.2546 46.7025 48.2346 44.2825 48.2346H38.3697C37.3797 48.2346 35.9775 48.8121 35.2625 49.5271L31.0825 53.7071C29.3775 55.4121 26.5722 55.4121 24.8672 53.7071L20.6873 49.5271C19.9723 48.8121 18.5698 48.2346 17.5798 48.2346H11.6674C9.24736 48.2346 7.26733 46.2546 7.26733 43.8346V37.9221C7.26733 36.9046 6.68984 35.5021 5.97484 34.8146Z" fill="#68372E"/>
<path d="M36.2506 38.5C34.7106 38.5 33.4731 37.2625 33.4731 35.75C33.4731 34.2375 34.7106 33 36.2231 33C37.7356 33 38.9731 34.2375 38.9731 35.75C38.9731 37.2625 37.7631 38.5 36.2506 38.5Z" fill="#DECDC5"/>
<path d="M19.7775 22C18.2375 22 17 20.7625 17 19.25C17 17.7375 18.2375 16.5 19.75 16.5C21.2625 16.5 22.5 17.7375 22.5 19.25C22.5 20.7625 21.29 22 19.7775 22Z" fill="#DECDC5"/>
<path d="M19.7485 37.8124C19.226 37.8124 18.7035 37.6199 18.291 37.2074C17.4935 36.4099 17.4935 35.0896 18.291 34.2921L34.7911 17.7922C35.5886 16.9947 36.9086 16.9947 37.7061 17.7922C38.5036 18.5897 38.5036 19.9099 37.7061 20.7074L21.206 37.2074C20.7935 37.6199 20.271 37.8124 19.7485 37.8124Z" fill="#DECDC5"/>
</svg>
