<svg width="200" height="166" viewBox="0 0 200 166" fill="none" xmlns="http://www.w3.org/2000/svg">
<path d="M99.9692 82.9655C77.1008 105.834 40.0196 105.834 17.1542 82.9655C-5.71743 60.097 -5.71743 23.0222 17.1542 0.153687" fill="url(#paint0_linear_1037_515)"/>
<path d="M17.1537 82.9655C-5.71792 60.097 -5.71792 23.0222 17.1537 0.153687V82.9655Z" fill="url(#paint1_linear_1037_515)"/>
<path d="M100.031 83.0282C122.903 60.1597 159.981 60.1657 182.85 83.0346C205.715 105.897 205.718 142.978 182.85 165.846" fill="url(#paint2_linear_1037_515)"/>
<path d="M182.85 83.0345C205.715 105.897 205.719 142.978 182.85 165.846V83.0345Z" fill="url(#paint3_linear_1037_515)"/>
<defs>
<linearGradient id="paint0_linear_1037_515" x1="-58.7669" y1="50.141" x2="130.094" y2="50.141" gradientUnits="userSpaceOnUse">
<stop offset="0.012" stop-color="#E0B386"/>
<stop offset="0.65" stop-color="#DA498C"/>
<stop offset="1" stop-color="#961484"/>
</linearGradient>
<linearGradient id="paint1_linear_1037_515" x1="-9.83364" y1="8.19758" x2="73.9684" y2="112.694" gradientUnits="userSpaceOnUse">
<stop offset="0.012" stop-color="#E0B386"/>
<stop offset="0.65" stop-color="#DA498C"/>
<stop offset="1" stop-color="#961484"/>
</linearGradient>
<linearGradient id="paint2_linear_1037_515" x1="247.562" y1="119.904" x2="-0.882723" y2="108.07" gradientUnits="userSpaceOnUse">
<stop stop-color="#29D3DA"/>
<stop offset="0.519" stop-color="#0077FF"/>
<stop offset="0.999" stop-color="#064093"/>
<stop offset="1" stop-color="#084698"/>
</linearGradient>
<linearGradient id="paint3_linear_1037_515" x1="208.906" y1="125.682" x2="162.157" y2="123.464" gradientUnits="userSpaceOnUse">
<stop stop-color="#29D3DA"/>
<stop offset="0.519" stop-color="#0077FF"/>
<stop offset="0.999" stop-color="#064093"/>
<stop offset="1" stop-color="#084698"/>
</linearGradient>
</defs>
</svg>
